<svg width="140" height="26" viewBox="0 0 140 26" fill="none" xmlns="http://www.w3.org/2000/svg">
    <rect width="140" height="26" rx="6" fill="#FFCA42"/>
    <path d="M67.0898 10.5625H68.8398V11.6289H67.0898V15.1699H65.791V6.92578H67.0898V10.5625ZM57.3691 13.8027C58.7363 13.8027 59.8027 13.7936 60.5684 13.7754V12.9482C59.862 12.8708 59.306 12.6748 58.9004 12.3604C58.4948 12.0413 58.2943 11.638 58.2988 11.1504C58.2943 10.7812 58.4128 10.46 58.6543 10.1865C58.8958 9.91309 59.2354 9.70345 59.6729 9.55762C60.1149 9.41178 60.6276 9.34115 61.2109 9.3457C61.7943 9.34115 62.3047 9.41178 62.7422 9.55762C63.1797 9.70345 63.5192 9.91309 63.7607 10.1865C64.0023 10.46 64.123 10.7812 64.123 11.1504C64.1185 11.6335 63.9157 12.0345 63.5146 12.3535C63.1136 12.668 62.5645 12.8662 61.8672 12.9482V13.7275C63.1022 13.6637 64.1777 13.5658 65.0938 13.4336L65.2031 14.3633C64.041 14.5638 62.8402 14.6937 61.6006 14.7529C60.361 14.8122 58.9961 14.8418 57.5059 14.8418L57.3691 13.8027ZM57.6836 7.96484H60.5684V6.81641H61.8672V7.96484H64.752V8.93555H57.6836V7.96484ZM58.9004 15.7441H67.0898V19.1621H65.791V16.7559H58.9004V15.7441ZM59.5293 11.1504C59.5293 11.4375 59.6774 11.6676 59.9736 11.8408C60.2699 12.0094 60.6732 12.0938 61.1836 12.0938C61.7077 12.0938 62.1224 12.0094 62.4277 11.8408C62.7331 11.6722 62.8835 11.4421 62.8789 11.1504C62.8835 10.8587 62.7354 10.6309 62.4346 10.4668C62.1383 10.3027 61.7305 10.2253 61.2109 10.2344C60.6868 10.2253 60.2744 10.3027 59.9736 10.4668C59.6774 10.6309 59.5293 10.8587 59.5293 11.1504ZM79.709 15.8262H78.4102V6.92578H79.709V15.8262ZM69.7969 10.7812C69.7969 10.2025 69.9404 9.68294 70.2275 9.22266C70.5146 8.76237 70.9066 8.40234 71.4033 8.14258C71.9001 7.87826 72.4538 7.74609 73.0645 7.74609C73.6751 7.74609 74.2266 7.87826 74.7188 8.14258C75.2155 8.40234 75.6051 8.76237 75.8877 9.22266C76.1748 9.68294 76.3184 10.2025 76.3184 10.7812C76.3184 11.3691 76.1748 11.8955 75.8877 12.3604C75.6051 12.8206 75.2155 13.1807 74.7188 13.4404C74.2266 13.7002 73.6751 13.8301 73.0645 13.8301C72.4538 13.8301 71.9001 13.7002 71.4033 13.4404C70.9066 13.1807 70.5146 12.8206 70.2275 12.3604C69.9404 11.8955 69.7969 11.3691 69.7969 10.7812ZM71.0684 10.7812C71.0684 11.1595 71.1527 11.4945 71.3213 11.7861C71.4945 12.0732 71.7337 12.2965 72.0391 12.4561C72.3444 12.6156 72.6862 12.6953 73.0645 12.6953C73.4382 12.6953 73.7754 12.6156 74.0762 12.4561C74.377 12.2965 74.6139 12.0732 74.7871 11.7861C74.9603 11.4945 75.0469 11.1595 75.0469 10.7812C75.0469 10.4121 74.9603 10.084 74.7871 9.79688C74.6139 9.50521 74.377 9.27962 74.0762 9.12012C73.7754 8.96061 73.4382 8.88086 73.0645 8.88086C72.6862 8.88086 72.3444 8.96061 72.0391 9.12012C71.7337 9.27962 71.4945 9.50521 71.3213 9.79688C71.1527 10.084 71.0684 10.4121 71.0684 10.7812ZM71.6973 14.9238H73.0098V17.8496H80.0781V18.9023H71.6973V14.9238Z" fill="black"/>
</svg>
