<svg width="140" height="26" viewBox="0 0 140 26" fill="none" xmlns="http://www.w3.org/2000/svg">
    <rect width="140" height="26" rx="6" fill="#FFCA42"/>
    <path d="M47.6621 17.6309H36.4512V16.5371H47.6621V17.6309ZM37.4082 8.08789H46.6367V9.1543H44.7637V13.2422H46.5957V14.2812H37.4355V13.2422H39.2676V9.1543H37.4082V8.08789ZM43.4922 13.2422V9.1543H40.5527V13.2422H43.4922ZM59.7617 17.6992H48.5508V16.6055H53.4863V14.459H49.918V10.5625H57.1094V8.83984H49.8906V7.77344H58.3945V11.6016H51.2031V13.3926H58.6816V14.459H54.7715V16.6055H59.7617V17.6992ZM70.8359 13.2422H69.5234V6.91211H70.8359V13.2422ZM60.8555 11.834C61.1562 11.834 61.653 11.8294 62.3457 11.8203V8.74414H61.1836V7.71875H67.8418V8.74414H66.666V11.6426C67.2812 11.6016 67.86 11.5469 68.4023 11.4785L68.457 12.4219C67.3678 12.5859 66.1989 12.7021 64.9502 12.7705C63.7015 12.8389 62.4619 12.873 61.2314 12.873H61.0059L60.8555 11.834ZM62.7012 13.8027H70.8359V16.8379H64.0137V18H71.2598V19.0391H62.7422V15.8945H69.5508V14.8281H62.7012V13.8027ZM63.5898 11.793C64.4147 11.7656 65.0254 11.7406 65.4219 11.7178V8.74414H63.5898V11.793ZM85.7109 11.6562H87.6797V12.75H85.7109V19.1621H84.4121V6.91211H85.7109V11.6562ZM76.6328 7.9375H77.918V11.082H81.1582V7.9375H82.4434V16.25H76.6328V7.9375ZM81.1582 15.1836V12.1074H77.918V15.1836H81.1582ZM99.4785 17.6992H88.2676V16.6055H93.2031V14.459H89.6348V10.5625H96.8262V8.83984H89.6074V7.77344H98.1113V11.6016H90.9199V13.3926H98.3984V14.459H94.4883V16.6055H99.4785V17.6992ZM109.91 11.793H111.811V12.873H109.91V19.1484H108.611V6.91211H109.91V11.793ZM100.381 15.8809C101.912 15.1152 103.095 14.181 103.929 13.0781C104.767 11.9753 105.253 10.7083 105.385 9.27734H100.996V8.19727H106.711C106.702 10.0658 106.248 11.7451 105.351 13.2354C104.453 14.721 103.038 15.9401 101.105 16.8926L100.381 15.8809ZM122.652 19.1621H121.34V6.91211H122.652V19.1621ZM112.59 15.8809C114.194 15.1152 115.413 14.1833 116.247 13.085C117.081 11.9867 117.562 10.7129 117.689 9.26367H113.178V8.22461H119.002C119.002 10.1204 118.549 11.8044 117.642 13.2764C116.739 14.7484 115.283 15.9674 113.273 16.9336L112.59 15.8809Z" fill="black"/>
    <path d="M24.0007 11C22.8957 11 22.0007 11.8954 22.0007 13C22.0007 14.1049 22.8961 15 24.0007 15C25.1055 15 26.0007 14.1046 26.0007 13C26.0007 11.8952 25.1053 11 24.0007 11ZM24.0007 9.66671C25.8409 9.66671 27.334 11.1581 27.334 13C27.334 14.8404 25.8426 16.3334 24.0007 16.3334C22.1603 16.3334 20.6673 14.842 20.6673 13C20.6673 11.1597 22.1587 9.66671 24.0007 9.66671ZM28.334 9.49947C28.334 9.95955 27.9601 10.3328 27.5007 10.3328C27.0406 10.3328 26.6673 9.95897 26.6673 9.49947C26.6673 9.03997 27.0411 8.66671 27.5007 8.66671C27.9595 8.66613 28.334 9.03997 28.334 9.49947ZM24.0007 7.66671C22.351 7.66671 22.0821 7.67107 21.3148 7.70524C20.7921 7.72978 20.4417 7.80009 20.1161 7.92649C19.8268 8.0387 19.6181 8.17269 19.3957 8.39507C19.1724 8.61831 19.0387 8.82646 18.9269 9.11593C18.8002 9.44225 18.73 9.79211 18.7059 10.3141C18.6714 11.0502 18.6673 11.3074 18.6673 13C18.6673 14.6497 18.6717 14.9186 18.7058 15.6858C18.7304 16.2083 18.8008 16.5592 18.9269 16.884C19.0394 17.1738 19.1737 17.383 19.395 17.6043C19.6191 17.8281 19.8279 17.9623 20.1146 18.073C20.4441 18.2004 20.7943 18.2708 21.3147 18.2948C22.0508 18.3293 22.308 18.3334 24.0007 18.3334C25.6503 18.3334 25.9192 18.329 26.6864 18.2948C27.2078 18.2704 27.559 18.1998 27.8847 18.0738C28.1736 17.9616 28.3835 17.8268 28.6049 17.6057C28.8291 17.3812 28.963 17.173 29.0738 16.8856C29.2009 16.5572 29.2714 16.2066 29.2955 15.686C29.3299 14.9499 29.334 14.6926 29.334 13C29.334 11.3504 29.3296 11.0815 29.2955 10.3143C29.2709 9.79275 29.2003 9.44103 29.0742 9.11549C28.9623 8.82696 28.8278 8.61761 28.6056 8.39507C28.382 8.17147 28.1744 8.03799 27.8847 7.92632C27.5587 7.79973 27.2083 7.72935 26.6865 7.70525C25.9505 7.67074 25.6933 7.66671 24.0007 7.66671ZM24.0007 6.33337C25.8117 6.33337 26.0379 6.34004 26.749 6.37337C27.4584 6.40615 27.9423 6.51837 28.3673 6.68337C28.8067 6.85282 29.1779 7.08171 29.5484 7.45226C29.9184 7.82282 30.1473 8.19504 30.3173 8.63337C30.4817 9.05782 30.594 9.54226 30.6273 10.2517C30.659 10.9628 30.6673 11.1889 30.6673 13C30.6673 14.8112 30.6607 15.0372 30.6273 15.7484C30.5945 16.4578 30.4817 16.9417 30.3173 17.3667C30.1479 17.8062 29.9184 18.1772 29.5484 18.5478C29.1779 18.9178 28.8051 19.1467 28.3673 19.3167C27.9423 19.4812 27.4584 19.5934 26.749 19.6267C26.0379 19.6584 25.8117 19.6667 24.0007 19.6667C22.1895 19.6667 21.9634 19.66 21.2523 19.6267C20.5429 19.5939 20.0595 19.4812 19.634 19.3167C19.1951 19.1472 18.8234 18.9178 18.4529 18.5478C18.0823 18.1772 17.854 17.8045 17.684 17.3667C17.519 16.9417 17.4073 16.4578 17.374 15.7484C17.3423 15.0372 17.334 14.8112 17.334 13C17.334 11.1889 17.3407 10.9628 17.374 10.2517C17.4068 9.54171 17.519 9.05837 17.684 8.63337C17.8534 8.19449 18.0823 7.82282 18.4529 7.45226C18.8234 7.08171 19.1957 6.85337 19.634 6.68337C20.059 6.51837 20.5423 6.40671 21.2523 6.37337C21.9634 6.34171 22.1895 6.33337 24.0007 6.33337Z" fill="black"/>
</svg>
