<svg width="94" height="32" viewBox="0 0 94 32" fill="none" xmlns="http://www.w3.org/2000/svg">
    <path d="M1.5446 16.5135C1.74882 16.3049 2.0892 16.1658 2.42957 16.0962L5.01641 15.679C6.58213 15.4703 9.57741 15.2617 13.8661 15.1226H14.8872H16.2487C19.5163 15.1226 21.7628 15.2617 22.9881 15.5399C23.2604 15.6094 23.5327 15.679 23.6689 15.8876C23.805 16.0962 23.9412 16.3049 23.9412 16.583C23.9412 17.4176 23.5327 17.9044 22.6478 17.9044C22.3755 17.9044 22.2393 17.9044 22.1712 17.8349C20.6055 17.6958 18.4271 17.5567 15.568 17.5567H13.8661C12.3004 17.5567 10.8028 17.6262 9.37319 17.7653C7.05865 17.9739 5.28871 18.113 3.99529 18.2521L2.36149 18.5303C2.02112 18.5999 1.68075 18.4608 1.40845 18.1826C1.13615 17.9044 1 17.5567 1 17.209C1.13615 17.0699 1.2723 16.7221 1.5446 16.5135ZM3.04224 22.8421C3.04224 22.4248 3.24647 22.0076 3.65491 21.7989C3.85914 21.6598 4.06336 21.5903 4.33566 21.5903C4.81218 21.5903 5.22063 21.7989 5.49293 22.2857C5.90138 22.9116 6.44598 23.5376 7.05865 24.1635C7.67132 24.7894 8.35207 25.3457 9.10089 25.6934C11.0751 26.7366 13.6619 27.293 16.8614 27.293C17.2018 27.293 17.8145 27.293 18.5633 27.2234C19.3121 27.1539 19.9928 27.0844 20.4694 26.9453C20.6055 26.9453 20.7417 26.8757 21.014 26.8757C21.6266 26.8757 22.0351 27.2234 22.1712 27.9189C22.1712 27.9884 22.2393 28.058 22.2393 28.1971C22.2393 28.5448 22.1712 28.823 21.967 29.0316C21.7628 29.2402 21.4905 29.3793 21.014 29.4489C19.5844 29.7271 18.3591 29.8662 17.3379 29.8662C15.3638 29.8662 13.5938 29.7271 12.0962 29.5184C10.5985 29.2402 9.16897 28.823 7.87555 28.058C6.85443 27.5016 5.90138 26.8062 5.08448 25.9716C4.26759 25.1371 3.65491 24.3721 3.31454 23.6071C3.11032 23.468 3.04224 23.1898 3.04224 22.8421ZM5.22063 10.1154C5.22063 9.90672 5.22063 9.62854 5.28871 9.28082L5.62908 6.6381C5.69716 5.94265 5.76523 5.31675 5.90138 4.69084L4.94833 4.76039C4.13144 4.76039 3.72299 4.34312 3.72299 3.57812C3.72299 3.2304 3.79106 2.95221 3.99529 2.74358C4.13144 2.53494 4.40374 2.39586 4.67603 2.32631C5.15256 2.25676 5.76523 2.18722 6.58213 2.18722C8.89667 1.97858 12.3004 1.83949 16.5891 1.7004L19.244 1.63086C19.6525 1.63086 19.9928 1.76995 20.2651 1.97858C20.5374 2.18722 20.6736 2.4654 20.6736 2.88267C20.6736 3.78676 20.129 4.20403 19.0398 4.20403C18.0187 4.20403 17.3379 4.20403 16.9976 4.27357C16.6572 4.27357 15.6361 4.34312 13.8661 4.34312C13.1173 4.34312 11.4154 4.41266 8.62437 4.6213C8.35207 6.29038 8.14785 7.95946 8.0117 9.55899C8.89667 9.48945 9.98586 9.35036 11.2793 9.28082C12.6408 9.21127 13.5938 9.14173 14.2065 9.14173C16.0445 9.14173 17.5422 9.14173 18.7675 9.07218C19.4482 9.07218 20.0609 9.07218 20.5374 9.14173C20.8778 9.14173 21.1501 9.28081 21.4224 9.55899C21.6947 9.76763 21.7628 10.1154 21.7628 10.4631C21.7628 10.8804 21.6266 11.2281 21.2863 11.4367C21.014 11.6453 20.6055 11.7149 20.1971 11.7149H17.4741C16.8614 11.7149 15.8403 11.7844 14.3426 11.7844C13.5938 11.7844 12.3685 11.854 10.7347 11.9931C9.10089 12.1322 8.14784 12.2713 7.80747 12.3408C7.53517 12.4103 7.12672 12.4799 6.78635 12.4799C6.44598 12.4799 6.1056 12.3408 5.8333 12.0626C5.42486 11.5063 5.22063 10.9499 5.22063 10.1154Z" fill="#231F20" stroke="#231F20" stroke-width="0.6396" stroke-miterlimit="10"/>
    <path d="M36.7039 15.6495C36.977 15.4393 37.2501 15.2991 37.5915 15.229C37.728 15.229 38.6156 15.0888 40.186 14.8785C41.6198 14.7383 44.624 14.5981 49.062 14.528H50.0862C51.6566 14.528 53.227 14.5981 54.7291 14.6682C56.2994 14.7383 57.4602 14.8785 58.2795 15.0888C58.5526 15.1589 58.7574 15.2991 58.9623 15.5093C59.1671 15.7196 59.2354 16 59.2354 16.2804C59.2354 17.1215 58.8257 17.5421 57.9381 17.5421C57.665 17.5421 57.5284 17.5421 57.4602 17.472C55.4801 17.1916 52.749 17.0514 49.1303 17.0514C49.1303 18.0327 49.1303 18.6636 49.1986 18.9439V20.3458C49.8131 20.486 50.3593 20.7664 50.9738 21.1168C51.6566 21.4673 52.1345 21.9579 52.5442 22.4486C52.9539 23.0093 53.227 23.5701 53.2952 24.1308C53.3635 24.6916 53.4318 25.0421 53.4318 25.3925C53.4318 26.514 53.1587 27.4953 52.5442 28.4065C51.8614 29.3879 51.1104 30.0187 50.2228 30.4393C49.3352 30.8598 48.311 31 47.1503 31C46.1261 31 45.1702 30.7196 44.3509 30.229C43.5316 29.6682 42.9171 29.0374 42.644 28.1963C42.5074 27.6355 42.3709 27.1449 42.3709 26.7944C42.3709 25.9533 42.5757 25.0421 43.0536 24.1308C43.5316 23.1495 44.2144 22.3084 44.8971 21.6776C45.3068 21.257 45.853 20.9065 46.4675 20.6262C46.4675 19.715 46.4675 19.2243 46.4675 18.9439V17.1215L44.624 17.2617L40.5274 17.5421L39.2984 17.6122L37.6597 17.8224C37.3183 17.8925 36.977 17.7523 36.7039 17.5421C36.4307 17.2617 36.2942 16.9813 36.2942 16.4907C36.2942 16.2103 36.4307 15.8598 36.7039 15.6495ZM40.1177 11.8645C39.8446 11.514 39.7081 11.0234 39.7081 10.3224L39.6398 7.93925V5.20561C39.6398 3.94393 39.6398 3.03271 39.7081 2.40187C39.7081 2.0514 39.8446 1.77103 40.1177 1.56075C40.3226 1.35047 40.6639 1.21028 41.0053 1.21028C41.415 1.21028 41.7564 1.35047 42.0295 1.63084C42.2343 1.91122 42.3709 2.26168 42.3026 2.54206C42.3026 2.75234 42.2343 3.45327 42.166 4.71495C44.8971 4.64486 47.0137 4.57477 48.5158 4.50467C48.7207 4.50467 49.7448 4.43458 51.5883 4.36449L52.6807 4.29439L52.8173 2.1215C52.8173 1.77103 52.9539 1.49066 53.227 1.28037C53.4318 1.07009 53.7732 1 54.1146 1C54.5242 1 54.7973 1.14019 55.0704 1.42056C55.2753 1.70093 55.4118 2.0514 55.4118 2.47196C55.3436 2.89252 55.3436 3.59346 55.3436 4.57477C55.3436 6.25701 55.4118 7.51869 55.4801 8.42991L55.6167 10.0421C55.6167 10.4626 55.5484 10.8832 55.2753 11.2336C55.0704 11.5841 54.7291 11.7243 54.3877 11.7243C54.1828 11.7243 53.978 11.6542 53.8415 11.5841L48.7207 11.9346C47.3551 12.0047 45.9896 12.1449 44.624 12.215C43.2585 12.285 42.2343 12.3551 41.4833 12.3551C40.8688 12.3551 40.3908 12.215 40.1177 11.8645ZM42.2343 9.76168C43.5316 9.69159 45.4434 9.6215 47.9696 9.48131C50.4959 9.34112 52.1345 9.20094 52.8173 9.13084C52.749 8.57009 52.749 7.79907 52.6807 6.81776C51.52 6.88785 47.9696 7.02804 42.0978 7.23832V8.35981L42.2343 9.76168ZM45.7165 28.0561C46.1261 28.4065 46.6041 28.5467 47.2186 28.5467C47.7648 28.5467 48.3793 28.4065 48.9255 28.1963C49.54 27.9159 50.0179 27.5654 50.3593 27.0748C50.769 26.514 51.0421 26.0234 51.0421 25.4626C51.0421 25.3224 51.0421 25.1822 50.9738 24.9019C50.8373 24.271 50.3593 23.6402 49.6083 23.1495C49.062 22.8692 48.5158 22.729 48.1062 22.729C47.7648 22.729 47.2868 22.9393 46.8772 23.3598C46.3992 23.7804 45.9896 24.3411 45.7165 24.972C45.3751 25.6028 45.2385 26.1636 45.2385 26.6542C45.102 27.215 45.3068 27.7056 45.7165 28.0561Z" fill="#231F20" stroke="#231F20" stroke-width="0.6396" stroke-miterlimit="10"/>
    <path d="M72.0629 17.9374C71.7238 17.0235 71.5881 16.1096 71.5881 15.1958C71.5881 14.1413 71.7238 13.0868 72.0629 12.0324C72.3341 10.9779 72.8089 9.99375 73.4192 9.07989C73.7583 8.44721 74.3009 7.88483 74.979 7.32246C75.6572 6.76008 76.1998 6.47889 76.6745 6.47889C76.9457 6.47889 77.217 6.54919 77.3527 6.76008C77.6917 6.68978 77.8952 6.68978 78.0987 6.68978C78.2343 6.68978 78.4377 6.68978 78.7768 6.76008C79.8619 6.90067 80.8792 7.46305 81.9643 8.37692C82.9815 9.29078 83.7275 10.2046 84.0666 11.2591C84.2023 11.7512 84.3379 12.3839 84.3379 13.0868C84.3379 14.1413 84.1344 15.1958 83.7275 16.2502C83.3206 17.3047 82.7103 18.1482 81.8965 18.8512C81.1505 19.4839 80.2688 19.976 79.3872 20.3275C78.4377 20.679 77.5561 20.8898 76.6067 20.8898C75.5216 20.8898 74.4365 20.5384 73.487 19.9057C72.8089 19.4839 72.402 18.8512 72.0629 17.9374ZM74.979 17.4453C75.3859 17.8671 75.9963 18.0779 76.7423 18.0779C77.3527 18.0779 77.8952 17.9374 78.5056 17.6562C79.1159 17.375 79.5906 17.0235 80.0654 16.6017C80.4723 16.2502 80.8792 15.7581 81.1505 15.0552C81.4217 14.3522 81.5574 13.7195 81.5574 13.0165C81.5574 12.2433 81.3539 11.6106 80.947 11.1185C80.5401 10.6264 80.0654 10.2046 79.455 9.92346C78.8447 9.64227 78.3021 9.50168 77.7596 9.50168C77.4883 9.50168 77.3527 9.50167 77.217 9.57197C76.9457 9.64227 76.6745 9.71257 76.3354 9.92346C75.9963 10.1343 75.7928 10.3452 75.6572 10.4858C75.1825 11.0482 74.7756 11.8918 74.5721 12.9462C74.3009 14.0007 74.233 14.9849 74.3009 15.8987C74.3687 16.5314 74.5721 17.0235 74.979 17.4453ZM89.9668 12.3839C89.9668 10.4858 89.9668 9.36108 90.0346 9.00959C90.0346 6.61948 90.0346 4.86205 90.1024 3.80759C90.1024 3.4561 90.2381 3.17491 90.5093 2.89372C90.7806 2.68283 91.0519 2.54224 91.391 2.54224C91.7301 2.54224 92.0691 2.68283 92.3404 2.96402C92.6117 3.24521 92.7473 3.5967 92.7473 3.94818C92.7473 4.29967 92.7473 4.65116 92.6795 5.00264L92.6117 9.07989C92.5439 9.71257 92.5439 10.3452 92.5439 10.9779L92.4082 18.6403C92.4082 21.171 92.4761 23.8423 92.7473 26.5839C92.8151 27.0057 92.6795 27.4275 92.4082 27.7087C92.137 27.9899 91.7979 28.1305 91.391 28.1305C91.0519 28.1305 90.7806 27.9899 90.5771 27.779C90.3737 27.5681 90.2381 27.2869 90.1702 27.0057C89.9668 25.3186 89.8312 22.5067 89.8312 18.57L89.9668 12.3839Z" fill="#231F20" stroke="#231F20" stroke-width="0.6396" stroke-miterlimit="10"/>
</svg>
