<svg width="16" height="16" viewBox="0 0 16 16" fill="none" xmlns="http://www.w3.org/2000/svg">
    <path d="M7.99992 2.66659C6.16754 2.66659 4.54997 3.59076 3.58954 4.99992H5.33325V6.33325H1.33325V2.33325H2.66659V3.99949C3.88246 2.38103 5.81835 1.33325 7.99992 1.33325C11.6818 1.33325 14.6666 4.31802 14.6666 7.99992H13.3333C13.3333 5.0544 10.9455 2.66659 7.99992 2.66659ZM2.66659 7.99992C2.66659 10.9455 5.0544 13.3333 7.99992 13.3333C9.83232 13.3333 11.4499 12.4091 12.4103 10.9999H10.6666V9.66658H14.6666V13.6666H13.3333V12.0003C12.1174 13.6188 10.1815 14.6666 7.99992 14.6666C4.31802 14.6666 1.33325 11.6818 1.33325 7.99992H2.66659Z" fill="#4A4A4A"/>
</svg>
