<svg width="9" height="9" viewBox="0 0 9 9" fill="none" xmlns="http://www.w3.org/2000/svg">
    <path d="M4.5 8.25C2.42893 8.25 0.75 6.57105 0.75 4.5C0.75 2.42893 2.42893 0.75 4.5 0.75C6.57105 0.75 8.25 2.42893 8.25 4.5C8.25 6.57105 6.57105 8.25 4.5 8.25ZM4.5 7.5C6.15686 7.5 7.5 6.15686 7.5 4.5C7.5 2.84314 6.15686 1.5 4.5 1.5C2.84314 1.5 1.5 2.84314 1.5 4.5C1.5 6.15686 2.84314 7.5 4.5 7.5ZM4.125 2.625H4.875V3.375H4.125V2.625ZM4.125 4.125H4.875V6.375H4.125V4.125Z" fill="black" fill-opacity="0.3"/>
</svg>
