<svg width="13" height="11" viewBox="0 0 13 11" fill="none" xmlns="http://www.w3.org/2000/svg">
    <path d="M0 3.66284C0 1.63991 1.73975 0 3.90043 0H9.09954C11.2537 0 13 1.64681 13 3.66284V11H3.90043C1.74628 11 0 9.35318 0 7.33718V3.66284ZM11.7 9.77778V3.66284C11.7 2.31941 10.5332 1.22222 9.09954 1.22222H3.90043C2.45998 1.22222 1.3 2.3128 1.3 3.66284V7.33718C1.3 8.68059 2.46683 9.77778 3.90043 9.77778H11.7ZM7.8 4.88889H9.1V6.11111H7.8V4.88889ZM3.9 4.88889H5.2V6.11111H3.9V4.88889Z" fill="black" fill-opacity="0.3"/>
</svg>
