<svg width="16" height="16" viewBox="0 0 16 16" fill="none" xmlns="http://www.w3.org/2000/svg">
    <path d="M8.00067 5.99992C6.89573 5.99992 6.00065 6.89532 6.00065 7.99992C6.00065 9.10478 6.89607 9.99992 8.00067 9.99992C9.10553 9.99992 10.0007 9.10452 10.0007 7.99992C10.0007 6.89505 9.10527 5.99992 8.00067 5.99992ZM8.00067 4.66658C9.84093 4.66658 11.334 6.15798 11.334 7.99992C11.334 9.84025 9.8426 11.3333 8.00067 11.3333C6.16034 11.3333 4.66732 9.84185 4.66732 7.99992C4.66732 6.15961 6.15872 4.66658 8.00067 4.66658ZM12.334 4.49935C12.334 4.95942 11.9601 5.3327 11.5007 5.3327C11.0406 5.3327 10.6673 4.95885 10.6673 4.49935C10.6673 4.03985 11.0411 3.66659 11.5007 3.66659C11.9595 3.66601 12.334 4.03985 12.334 4.49935ZM8.00067 2.66659C6.351 2.66659 6.08212 2.67095 5.31484 2.70512C4.7921 2.72966 4.44168 2.79997 4.1161 2.92637C3.82677 3.03858 3.61806 3.17257 3.39568 3.39495C3.17244 3.61819 3.03869 3.82634 2.92693 4.11581C2.80024 4.44213 2.72995 4.79199 2.70585 5.31402C2.67135 6.05005 2.66732 6.30728 2.66732 7.99992C2.66732 9.64958 2.67168 9.91845 2.70584 10.6857C2.7304 11.2082 2.8008 11.5591 2.92689 11.8839C3.0394 12.1737 3.17366 12.3829 3.39497 12.6042C3.61908 12.828 3.82786 12.9622 4.11458 13.0729C4.44412 13.2003 4.79432 13.2707 5.31474 13.2947C6.05078 13.3292 6.30802 13.3333 8.00067 13.3333C9.65033 13.3333 9.9192 13.3289 10.6864 13.2947C11.2078 13.2703 11.559 13.1997 11.8847 13.0737C12.1736 12.9615 12.3835 12.8267 12.6049 12.6056C12.8291 12.3811 12.963 12.1729 13.0738 11.8855C13.2009 11.5571 13.2714 11.2065 13.2955 10.6859C13.3299 9.94979 13.334 9.69252 13.334 7.99992C13.334 6.35027 13.3296 6.08139 13.2955 5.31417C13.2709 4.79263 13.2003 4.44091 13.0742 4.11537C12.9623 3.82684 12.8278 3.61749 12.6056 3.39495C12.382 3.17135 12.1744 3.03787 11.8847 2.9262C11.5587 2.79961 11.2083 2.72923 10.6865 2.70513C9.95053 2.67062 9.69326 2.66659 8.00067 2.66659ZM8.00067 1.33325C9.81173 1.33325 10.0379 1.33992 10.749 1.37325C11.4584 1.40603 11.9423 1.51825 12.3673 1.68325C12.8067 1.8527 13.1779 2.08159 13.5484 2.45214C13.9184 2.8227 14.1473 3.19492 14.3173 3.63325C14.4817 4.0577 14.594 4.54214 14.6273 5.25159C14.659 5.9627 14.6673 6.18881 14.6673 7.99992C14.6673 9.81105 14.6607 10.0371 14.6273 10.7483C14.5945 11.4577 14.4817 11.9416 14.3173 12.3666C14.1479 12.8061 13.9184 13.1771 13.5484 13.5477C13.1779 13.9177 12.8051 14.1466 12.3673 14.3166C11.9423 14.4811 11.4584 14.5933 10.749 14.6266C10.0379 14.6583 9.81173 14.6666 8.00067 14.6666C6.18954 14.6666 5.96342 14.6599 5.25232 14.6266C4.54287 14.5938 4.05954 14.4811 3.63398 14.3166C3.19509 14.1471 2.82342 13.9177 2.45287 13.5477C2.08232 13.1771 1.85398 12.8044 1.68398 12.3666C1.51898 11.9416 1.40732 11.4577 1.37398 10.7483C1.34232 10.0371 1.33398 9.81105 1.33398 7.99992C1.33398 6.18881 1.34065 5.9627 1.37398 5.25159C1.40676 4.54159 1.51898 4.05825 1.68398 3.63325C1.85342 3.19437 2.08232 2.8227 2.45287 2.45214C2.82342 2.08159 3.19565 1.85325 3.63398 1.68325C4.05898 1.51825 4.54232 1.40659 5.25232 1.37325C5.96342 1.34159 6.18954 1.33325 8.00067 1.33325Z" fill="black"/>
</svg>
