<svg width="17" height="17" viewBox="0 0 17 17" fill="none" xmlns="http://www.w3.org/2000/svg">
    <path d="M6.81309 0.123785C5.62681 -0.260236 4.33721 0.273928 3.76991 1.38432L3.08789 2.71924C3.00686 2.87786 2.87786 3.00686 2.71924 3.08789L1.38432 3.76991C0.273928 4.33721 -0.260236 5.62681 0.123785 6.81309L0.585463 8.23928C0.64031 8.40873 0.64031 8.59121 0.585463 8.76066L0.123785 10.1869C-0.260236 11.3732 0.273928 12.6627 1.38432 13.2301L2.71924 13.912C2.87786 13.9931 3.00686 14.1221 3.08789 14.2807L3.76991 15.6157C4.33721 16.7261 5.62681 17.2602 6.81309 16.8762L8.23928 16.4145C8.40873 16.3597 8.59121 16.3597 8.76066 16.4145L10.1869 16.8762C11.3732 17.2602 12.6627 16.7261 13.2301 15.6157L13.912 14.2807C13.9931 14.1221 14.1221 13.9931 14.2807 13.912L15.6157 13.2301C16.7261 12.6627 17.2602 11.3732 16.8762 10.1869L16.4145 8.76066C16.3597 8.59121 16.3597 8.40873 16.4145 8.23928L16.8762 6.81309C17.2602 5.62681 16.7261 4.33721 15.6157 3.76991L14.2807 3.08789C14.1221 3.00686 13.9931 2.87786 13.912 2.71924L13.2301 1.38432C12.6627 0.273928 11.3732 -0.260236 10.1869 0.123785L8.76066 0.585463C8.59121 0.64031 8.40873 0.640319 8.23928 0.585463L6.81309 0.123785ZM5.27737 2.15449C5.46647 1.78436 5.89634 1.6063 6.29177 1.73431L7.71798 2.19598C8.22633 2.36055 8.77361 2.36055 9.28196 2.19598L10.7082 1.73431C11.1036 1.6063 11.5335 1.78436 11.7226 2.15448L12.4046 3.48941C12.6477 3.96524 13.0347 4.35225 13.5106 4.59535L14.8454 5.27737C15.2156 5.46647 15.3937 5.89634 15.2657 6.29177L14.804 7.71798C14.6394 8.22633 14.6394 8.77361 14.804 9.28196L15.2657 10.7082C15.3937 11.1036 15.2156 11.5335 14.8454 11.7226L13.5106 12.4046C13.0347 12.6477 12.6477 13.0347 12.4046 13.5106L11.7226 14.8454C11.5335 15.2156 11.1036 15.3937 10.7082 15.2657L9.28196 14.804C8.77361 14.6394 8.22633 14.6394 7.71798 14.804L6.29177 15.2657C5.89634 15.3937 5.46647 15.2156 5.27737 14.8454L4.59535 13.5106C4.35225 13.0347 3.96524 12.6477 3.48941 12.4046L2.15449 11.7226C1.78436 11.5335 1.6063 11.1036 1.73431 10.7082L2.19598 9.28196C2.36055 8.77361 2.36055 8.22633 2.19598 7.71798L1.73431 6.29177C1.6063 5.89634 1.78436 5.46647 2.15449 5.27737L3.48941 4.59535C3.96524 4.35225 4.35225 3.96524 4.59535 3.48941L5.27737 2.15449ZM4.06449 8.29463L7.65543 11.8856L13 6.81309L11.803 5.6161L7.65543 9.49162L5.26149 7.09757L4.06449 8.29463Z" fill="black"/>
</svg>
