<svg width="14" height="14" viewBox="0 0 14 14" fill="none" xmlns="http://www.w3.org/2000/svg">
    <path d="M11.6667 1.16675C11.9888 1.16675 12.25 1.42792 12.25 1.75008V3.94166L11.0833 5.10833V2.33341H2.91667V11.6667H11.0833V10.0579L12.25 8.89125V12.2501C12.25 12.5723 11.9888 12.8334 11.6667 12.8334H2.33333C2.01117 12.8334 1.75 12.5723 1.75 12.2501V1.75008C1.75 1.42792 2.01117 1.16675 2.33333 1.16675H11.6667ZM12.7039 5.13785L13.5289 5.9628L8.99162 10.5001L8.16544 10.4989L8.16667 9.67513L12.7039 5.13785ZM7.58333 7.00008V8.16675H4.66667V7.00008H7.58333ZM9.33333 4.66675V5.83342H4.66667V4.66675H9.33333Z" fill="black" fill-opacity="0.3"/>
</svg>
