<svg width="22" height="22" viewBox="0 0 22 22" fill="none" xmlns="http://www.w3.org/2000/svg">
    <rect x="4" y="4" width="7" height="1.5" rx="0.75" fill="black" fill-opacity="0.3"/>
    <path fill-rule="evenodd" clip-rule="evenodd" d="M14 14.75C14 15.1642 14.3358 15.5 14.75 15.5H17.75C18.1642 15.5 18.5 15.1642 18.5 14.75C18.5 14.3358 18.1642 14 17.75 14H15.5L15.5 11.75C15.5 11.3358 15.1642 11 14.75 11C14.3358 11 14 11.3358 14 11.75V14.75Z" fill="black" fill-opacity="0.3"/>
    <rect x="4" y="7" width="4" height="1.5" rx="0.75" fill="black" fill-opacity="0.3"/>
    <path fill-rule="evenodd" clip-rule="evenodd" d="M2 2V18H7.86505C7.31273 16.9551 7 15.7641 7 14.5C7 10.3579 10.3579 7 14.5 7C14.668 7 14.8347 7.00552 15 7.0164V2H2ZM17 7.42676V1C17 0.447715 16.5523 0 16 0H1C0.447715 0 0 0.447715 0 1V19C0 19.5523 0.447715 20 1 20H9.40093C10.7391 21.2412 12.5309 22 14.5 22C18.6421 22 22 18.6421 22 14.5C22 11.2345 19.913 8.45636 17 7.42676ZM17 9.59971C16.3904 9.28807 15.7149 9.08685 15 9.02242C14.8353 9.00758 14.6685 9 14.5 9C11.4624 9 9 11.4624 9 14.5C9 15.8296 9.47182 17.0491 10.2572 18C11.266 19.2215 12.7921 20 14.5 20C15.3569 20 16.168 19.804 16.891 19.4545C18.7309 18.5649 20 16.6807 20 14.5C20 12.3627 18.7808 10.5101 17 9.59971Z" fill="black" fill-opacity="0.3"/>
</svg>
