<svg width="20" height="20" viewBox="0 0 20 20" fill="none" xmlns="http://www.w3.org/2000/svg">
<g id="eye-off-fill">
<path id="Vector" d="M3.76722 4.94556L1.16155 2.33989L2.34006 1.16138L18.8392 17.6605L17.6607 18.8391L14.9024 16.0808C13.4847 16.9797 11.8033 17.5003 10.0004 17.5003C5.50693 17.5003 1.76862 14.2671 0.984863 10.0003C1.34876 8.0191 2.3496 6.26084 3.76722 4.94556ZM12.2982 13.4766L11.0782 12.2566C10.7518 12.4128 10.3863 12.5003 10.0004 12.5003C8.61966 12.5003 7.50038 11.3809 7.50038 10.0003C7.50038 9.61425 7.58785 9.24875 7.74402 8.92234L6.52405 7.70239C6.08778 8.36109 5.83371 9.151 5.83371 10.0003C5.83371 12.3014 7.6992 14.1669 10.0004 14.1669C10.8496 14.1669 11.6395 13.9128 12.2982 13.4766ZM6.64555 3.13354C7.68455 2.72474 8.81625 2.50022 10.0004 2.50022C14.4938 2.50022 18.2322 5.73335 19.0159 10.0003C18.7557 11.4166 18.17 12.7191 17.3392 13.8272L14.1227 10.6107C14.1519 10.4114 14.1671 10.2076 14.1671 10.0003C14.1671 7.69903 12.3016 5.83355 10.0004 5.83355C9.793 5.83355 9.58916 5.84869 9.38991 5.87794L6.64555 3.13354Z" fill="black" fill-opacity="0.3"/>
</g>
</svg>
