<svg width="20" height="20" viewBox="0 0 20 20" fill="none" xmlns="http://www.w3.org/2000/svg">
<g id="eye-fill">
<path id="Vector" d="M1 9.5C1.78376 5.23313 5.52207 2 10.0156 2C14.509 2 18.2473 5.23313 19.031 9.5C18.2473 13.7668 14.509 17 10.0156 17C5.52207 17 1.78376 13.7668 1 9.5ZM10.0156 13.6667C12.3167 13.6667 14.1822 11.8012 14.1822 9.5C14.1822 7.19882 12.3167 5.33333 10.0156 5.33333C7.71433 5.33333 5.84885 7.19882 5.84885 9.5C5.84885 11.8012 7.71433 13.6667 10.0156 13.6667ZM10.0156 12C8.6348 12 7.51552 10.8807 7.51552 9.5C7.51552 8.11925 8.6348 7 10.0156 7C11.3962 7 12.5156 8.11925 12.5156 9.5C12.5156 10.8807 11.3962 12 10.0156 12Z" fill="#FFCA42"/>
</g>
</svg>
